<?xml version="1.0" encoding="UTF-8" standalone="no"?>
<svg xmlns="http://www.w3.org/2000/svg" width="220" height="220">
  <circle cx="110" cy="110" r="98" fill="#fff"/>
  <path d="M110 55c-30.36 0-55 24.64-55 55s24.64 55 55 55c26.24246 0 48.21121-18.39947 53.6875-43h-29.5c-4.42278 8.8816-13.59782 15-24.1875 15-14.904 0-27-12.096-27-27s12.096-27 27-27c10.19663 0 19.09382 5.65083 23.6875 14h29.75C157.59313 72.905598 135.88327 55 110 55z"/>
  <path fill="#fff" d="M158.5 42.5c-39.17708 39.177083-78.354167 78.35417-117.53125 117.53125 6.993314 6.67474 14.066166 13.26592 21.0625 19.9375l117.9375-117.9375c-6.67172-6.996203-13.26292-14.069039-19.9375-21.0625-.51042.510417-1.02083 1.020833-1.53125 1.53125z"/>
  <path fill="red" d="M160 44 44 160l18 17L177 62z"/>
  <path fill="red" d="M110 12c-54.096 0-98 43.904-98 98s43.904 98 98 98 98-43.904 98-98-43.904-98-98-98zm0 20c43.056 0 78 34.944 78 78s-34.944 78-78 78-78-34.944-78-78 34.944-78 78-78z"/>
</svg>